<?xml version="1.0" standalone="no"?>
<!DOCTYPE svg PUBLIC "-//W3C//DTD SVG 1.1//EN" "http://www.w3.org/Graphics/SVG/1.1/DTD/svg11.dtd" >
<svg xmlns="http://www.w3.org/2000/svg" xmlns:xlink="http://www.w3.org/1999/xlink" version="1.1">
<metadata>
Created by FontForge 20161004 at Fri Mar 03 04:11:07 2017
 By yoon

</metadata>
<defs>
<font id="DNieCursiveScript" horiz-adv-x="527" >
  <font-face 
    font-family="DNielScript"
    font-weight="400"
    font-stretch="normal"
    units-per-em="1024"
    panose-1="3 0 5 3 0 0 0 0 0 0"
    ascent="819"
    descent="-205"
    x-height="441"
    cap-height="645"
    bbox="0 -204 947 763"
    underline-thickness="0"
    underline-position="0"
    unicode-range="U+0020-007E"
  />
<missing-glyph horiz-adv-x="866" 
d="M585 -128h-530c-18 6 -24 19 -24 33c0 24 16 54 21 74c62 255 135 506 203 759c14 20 33 25 56 25c19 0 40 -4 59 -4c7 0 13 1 19 2h426c15 -7 20 -19 20 -32c0 -24 -16 -53 -19 -74c-68 -254 -135 -508 -204 -761c-4 -11 -14 -22 -27 -22zM561 -66
c68 256 137 513 205 769h-458c-69 -256 -137 -513 -206 -769h459zM332 86c-25 6 -35 25 -35 45c0 21 19 42 50 52c5 1 9 2 13 2c26 0 42 -23 42 -46c0 -13 -5 -26 -15 -35c-11 -10 -29 -18 -46 -18c-3 0 -6 -1 -9 0zM329 206c9 52 19 120 74 142c40 15 95 -2 119 43
c13 27 25 59 25 89c0 17 -3 33 -12 48c-11 16 -29 20 -47 20s-37 -4 -53 -7c-48 -10 -49 -69 -63 -102h-61c13 55 31 115 83 145c25 16 53 21 81 21c23 0 45 -3 67 -7c50 -11 70 -63 70 -111c0 -7 0 -14 -1 -21c-7 -60 -32 -124 -86 -157c-40 -24 -116 6 -116 -58
c0 -41 -26 -45 -54 -45h-26z" />
    <glyph glyph-name=".notdef" horiz-adv-x="866" 
d="M585 -128h-530c-18 6 -24 19 -24 33c0 24 16 54 21 74c62 255 135 506 203 759c14 20 33 25 56 25c19 0 40 -4 59 -4c7 0 13 1 19 2h426c15 -7 20 -19 20 -32c0 -24 -16 -53 -19 -74c-68 -254 -135 -508 -204 -761c-4 -11 -14 -22 -27 -22zM561 -66
c68 256 137 513 205 769h-458c-69 -256 -137 -513 -206 -769h459zM332 86c-25 6 -35 25 -35 45c0 21 19 42 50 52c5 1 9 2 13 2c26 0 42 -23 42 -46c0 -13 -5 -26 -15 -35c-11 -10 -29 -18 -46 -18c-3 0 -6 -1 -9 0zM329 206c9 52 19 120 74 142c40 15 95 -2 119 43
c13 27 25 59 25 89c0 17 -3 33 -12 48c-11 16 -29 20 -47 20s-37 -4 -53 -7c-48 -10 -49 -69 -63 -102h-61c13 55 31 115 83 145c25 16 53 21 81 21c23 0 45 -3 67 -7c50 -11 70 -63 70 -111c0 -7 0 -14 -1 -21c-7 -60 -32 -124 -86 -157c-40 -24 -116 6 -116 -58
c0 -41 -26 -45 -54 -45h-26z" />
    <glyph glyph-name="a" unicode="a" horiz-adv-x="671" 
d="M278 0c-44 0 -85 27 -111 62c-20 26 -34 54 -38 87c-28 -30 -70 -78 -129 -87v47c39 10 64 43 92 70c19 18 35 39 45 64c19 37 46 71 81 95c27 19 54 40 83 58c65 38 141 50 215 50h32h31c10 -4 16 -14 16 -24c0 -5 -1 -9 -3 -13c-23 -81 -68 -155 -79 -240
c-5 -33 -5 -67 -5 -101c0 -15 10 -20 25 -20c43 0 128 48 138 61v-47c-34 -38 -105 -63 -148 -63c-4 0 -8 1 -11 1c-13 2 -26 5 -33 15c-17 20 -24 47 -24 72c0 14 2 28 4 40c-29 -42 -61 -86 -106 -111c-23 -12 -49 -16 -75 -16zM285 50c31 0 59 18 80 40
c33 35 58 76 84 115c23 40 45 82 62 125c7 22 15 44 23 66c-68 0 -136 -12 -197 -41c-33 -18 -63 -42 -91 -67c-21 -20 -38 -45 -48 -72c-8 -18 -16 -36 -16 -56c0 -31 19 -59 39 -82c15 -16 35 -28 57 -28h7z" />
    <glyph glyph-name="b" unicode="b" horiz-adv-x="607" 
d="M357 0c-3 3 -5 7 -8 3c-21 -15 -46 -28 -72 -28h-10c-20 3 -36 21 -42 40c-10 30 -10 38 -10 69c0 12 6 47 6 59c-59 -48 -151 -81 -221 -81v47c66 0 90 12 137 36c18 9 77 54 93 67c28 111 53 226 112 325c23 39 46 75 112 89c19 4 38 7 55 7c32 0 57 -13 57 -65
c0 -51 -52 -131 -79 -173c-62 -96 -137 -138 -211 -208c-8 -23 -14 -47 -14 -75c0 -11 1 -23 3 -37c0 -4 7 -50 17 -50c17 2 33 13 47 24c1 5 -3 14 -4 19c-7 20 -10 38 -10 60c0 43 28 86 68 105c8 4 19 4 28 4c12 0 22 -2 31 -11c11 -10 16 -26 16 -42c0 -4 0 -8 -1 -12
c-6 -39 -30 -71 -51 -104c-5 -8 -12 -18 -15 -26c4 -12 18 -23 30 -23c34 0 68 21 96 38c31 18 61 30 90 52v-47c-48 -45 -108 -87 -184 -87c-26 0 -51 9 -66 25zM411 174c0 6 -5 13 -12 13c-15 0 -25 -15 -31 -27c-7 -14 -16 -33 -16 -52c0 -12 4 -25 12 -36
c21 22 47 68 47 102zM464 448c10 22 14 44 14 67v29c0 12 -9 16 -16 16c-12 0 -28 -12 -39 -19c-27 -17 -24 -17 -37 -37c-32 -53 -33 -64 -56 -122c-10 -27 -31 -82 -31 -106c0 -5 1 -8 2 -10c40 19 122 105 163 182z" />
    <glyph glyph-name="c" unicode="c" horiz-adv-x="618" 
d="M0 110c32 9 142 65 172 141c16 82 25 146 95 178c35 16 78 25 130 25c69 0 147 -88 147 -88c-13 -11 -23 -30 -36 -41c-35 41 -81 61 -128 61c-96 0 -144 -86 -144 -170c0 -78 46 -153 140 -153c63 0 186 33 242 47v-50c-60 -39 -167 -74 -244 -74c-12 0 -23 1 -33 3
c-66 12 -98 31 -156 115c-10 14 -17 34 -22 48c-6 -6 -12 -13 -18 -20c-45 -47 -89 -69 -145 -69v47z" />
    <glyph glyph-name="d" unicode="d" horiz-adv-x="633" 
d="M258 -24c-52 0 -100 46 -100 97c0 10 1 18 1 28c-13 -8 -113 -39 -159 -39v47c162 0 225 150 349 195c36 13 73 21 111 21c40 100 79 217 118 318l52 -15l-168 -455c-5 -24 -12 -50 -12 -75c0 -10 1 -20 4 -30c4 -13 13 -28 28 -28c48 0 118 44 151 69v-47
c-37 -36 -86 -74 -148 -74c-19 0 -37 5 -51 18c-16 15 -15 55 -31 55c-2 0 -5 -1 -8 -3c-14 -11 -23 -25 -37 -38c-27 -25 -62 -44 -100 -44zM336 62c41 19 80 133 94 181c3 10 7 20 11 30c-43 0 -83 -20 -120 -40c-65 -36 -108 -65 -108 -155c0 -27 24 -39 51 -39
c14 0 60 17 72 23z" />
    <glyph glyph-name="e" unicode="e" horiz-adv-x="658" 
d="M414 -12c-73 0 -140 55 -166 123c0 0 -150 -49 -248 -49v47c57 0 114 14 167 38c22 10 44 21 66 32c0 40 2 80 13 119c17 59 58 108 106 146c42 34 94 59 149 59c29 0 61 -9 79 -33c13 -18 18 -41 18 -63c0 -9 -1 -18 -2 -27c-5 -40 -24 -77 -54 -104
c-43 -42 -100 -66 -154 -91c-30 -14 -60 -27 -89 -43c16 -34 37 -69 72 -87c15 -7 30 -8 46 -8c13 0 26 1 39 1c49 0 97 15 143 33c15 6 36 17 59 28v-47c-18 -24 -46 -33 -73 -46s-57 -25 -87 -25c-28 0 -56 -3 -84 -3zM295 210c67 33 138 62 195 111c22 21 44 45 48 76
c1 9 1 21 -8 26c-10 5 -22 6 -34 6h-10c-57 0 -108 -37 -142 -81c-31 -40 -53 -89 -53 -140c2 1 3 1 4 2z" />
    <glyph glyph-name="f" unicode="f" horiz-adv-x="517" 
d="M173 -198c-30 0 -62 18 -73 47c-9 20 -12 41 -12 62c0 23 4 38 9 60c10 44 23 87 35 131c2 6 3 8 -3 4c-42 -19 -85 -30 -129 -44v47c53 20 107 39 156 69c3 6 3 13 7 20c37 111 73 225 129 329c19 33 41 67 70 92c11 8 24 12 38 12c10 0 20 -2 29 -7
c24 -13 37 -38 46 -63c5 -12 7 -25 7 -38s-2 -27 -5 -39c-14 -61 -48 -116 -85 -165c-42 -54 -89 -105 -145 -146c-15 -11 -31 -21 -47 -30c-4 -4 -3 -11 -5 -16c-5 -18 -12 -36 -17 -54c23 -18 53 -23 81 -23c68 0 138 6 201 33c20 9 40 12 57 26v-47
c-61 -47 -140 -66 -216 -66c-23 0 -46 1 -68 4c19 -34 45 -61 45 -101c0 -29 -14 -57 -37 -74c-19 -15 -43 -23 -68 -23zM174 -148c21 0 42 17 51 36v4c0 12 -6 22 -10 32c-14 34 -33 58 -53 88c-9 -38 -19 -68 -19 -106c0 -9 1 -17 2 -26c2 -15 14 -28 29 -28zM232 234
c63 53 121 114 164 185c19 33 33 70 33 107c0 15 -5 31 -15 41c-4 5 -9 11 -15 13c-8 -1 -12 -9 -17 -14c-35 -42 -57 -92 -79 -141c-27 -63 -51 -128 -73 -194c1 1 1 2 2 3z" />
    <glyph glyph-name="g" unicode="g" horiz-adv-x="541" 
d="M219 -204c-34 0 -64 26 -72 58c-3 12 -3 23 -3 35s0 23 3 35c12 29 37 51 65 63c25 11 50 18 76 26c17 4 35 8 53 11c5 18 10 36 14 54c-18 -17 -36 -36 -57 -51c-22 -14 -48 -22 -74 -22c-19 0 -39 4 -56 13c-32 17 -50 51 -59 85c-1 4 -2 7 -3 11
c-13 -16 -68 -52 -106 -52v47c32 5 64 23 86 48c18 20 21 47 31 71c10 25 23 49 41 70c45 57 104 105 174 129c57 20 118 29 179 29c-39 -141 -78 -283 -117 -424c46 11 110 49 147 77v-47c-44 -32 -87 -63 -140 -80c-7 -3 -15 -4 -22 -5c-10 -35 -20 -70 -39 -102
c-18 -32 -44 -63 -81 -74c-13 -4 -27 -5 -40 -5zM228 -154c25 0 46 19 60 39c17 24 25 53 37 80c-40 -9 -83 -15 -117 -40c-10 -9 -17 -27 -17 -43c0 -13 7 -28 19 -33c6 -2 12 -3 18 -3zM219 58c24 0 51 7 68 27c28 28 62 52 84 85c6 16 9 32 15 48c20 60 39 121 58 181
c-51 -8 -103 -19 -148 -46c-52 -30 -94 -75 -123 -127c-12 -23 -19 -49 -19 -75c0 -11 1 -21 3 -31c5 -22 16 -45 35 -58c8 -5 17 -4 27 -4z" />
    <glyph glyph-name="h" unicode="h" horiz-adv-x="547" 
d="M361 -13c-28 0 -59 20 -65 49c-1 4 0 9 0 13v27c0 28 19 54 37 76c24 30 54 58 70 94c3 8 4 20 -5 23h-6c-9 0 -18 -4 -26 -8c-27 -13 -49 -34 -70 -55c-59 -61 -98 -139 -123 -219h-45c14 55 33 109 46 164c-52 -46 -126 -77 -174 -89v47c52 19 115 49 162 90
c13 12 28 23 39 37c35 107 72 213 122 314c15 27 28 58 55 75c7 5 14 7 22 7c4 0 9 0 13 -2c23 -7 38 -30 38 -53c0 -34 -2 -68 -17 -99c-34 -75 -88 -139 -141 -201c-20 -24 -44 -46 -58 -75c-2 -5 -5 -12 -6 -15c29 41 62 83 108 106c19 9 39 16 60 16c3 0 7 -1 10 -1
c19 -2 36 -16 39 -35c1 -5 2 -9 2 -14c0 -20 -11 -41 -22 -57c-27 -40 -65 -73 -82 -119c-3 -8 -5 -16 -5 -25c0 -6 1 -13 6 -19c5 -5 12 -7 18 -7s12 1 17 2c54 10 128 41 167 75v-47c-50 -47 -117 -75 -186 -75zM276 319c52 62 103 127 131 203c4 10 6 21 6 32
c0 10 -2 20 -8 29c-2 3 -6 8 -9 3c-29 -26 -42 -64 -58 -98c-22 -50 -42 -100 -59 -151c-3 -8 -5 -15 -7 -23c1 2 2 4 4 5z" />
    <glyph glyph-name="i" unicode="i" horiz-adv-x="480" 
d="M287 -10c-25 0 -53 10 -65 33c-11 21 -12 44 -12 67v28c0 37 11 72 18 108c-54 -58 -112 -114 -183 -151c-14 -7 -29 -9 -45 -13v47c74 37 144 86 195 152c41 52 74 110 110 166c15 -2 30 -10 40 -21c-29 -88 -71 -174 -83 -267c-2 -16 -5 -32 -5 -49c0 -13 2 -29 8 -41
c1 -5 4 -8 9 -8c5 -1 12 -1 17 -1c33 0 64 15 93 27c33 14 64 26 96 42v-46c-41 -28 -88 -44 -132 -63c-20 -8 -41 -10 -61 -10zM373 457c-28 0 -45 29 -45 56c0 22 22 41 44 41c21 0 44 -12 49 -33c1 -5 2 -11 2 -16c0 -10 -3 -20 -9 -27c-10 -13 -25 -21 -41 -21z" />
    <glyph glyph-name="j" unicode="j" horiz-adv-x="424" 
d="M365 394c-30 0 -55 24 -55 50c0 5 1 10 3 15c5 20 27 34 49 34c3 0 5 -1 8 -1c23 0 48 -13 52 -35c1 -5 2 -10 2 -15c0 -12 -4 -24 -15 -33c-11 -10 -28 -15 -44 -15zM83 -157c21 3 35 21 47 38c27 38 43 81 58 125c-28 -5 -56 -13 -80 -29c-21 -19 -32 -47 -37 -73
c-1 -7 -2 -14 -2 -21c0 -13 2 -25 8 -36c1 -2 3 -4 6 -4zM74 -201c-23 4 -39 24 -47 44c-4 11 -8 23 -8 35c0 10 1 21 4 31c7 32 19 65 40 91c21 28 54 42 87 53c20 7 41 11 61 15c7 20 13 40 19 59c11 34 21 67 31 101c-79 -76 -138 -132 -261 -166v47
c86 38 168 89 234 156c18 20 35 41 50 64c5 11 9 27 21 32c3 1 5 1 8 1c9 0 17 -4 25 -7c-21 -97 -55 -191 -82 -286c33 0 135 22 168 40v-47c-30 -19 -111 -39 -147 -44c-13 -2 -25 0 -37 -3c-28 -62 -50 -127 -93 -180c-15 -19 -37 -36 -63 -36h-10z" />
    <glyph glyph-name="k" unicode="k" horiz-adv-x="533" 
d="M78 10c34 59 83 145 116 204c-61 -75 -91 -110 -194 -152v47c126 58 183 168 265 261c25 70 50 139 76 208c13 18 28 37 50 43c4 1 8 1 12 1c24 0 47 -12 66 -27c14 -13 25 -32 25 -52c0 -4 1 -7 0 -11c-7 -31 -30 -55 -51 -77c-44 -43 -108 -117 -159 -151l78 21
c7 1 14 1 22 1h21h32c16 -4 28 -20 30 -36c1 -7 1 -14 1 -21c0 -16 -2 -31 -7 -46c-12 -33 -40 -56 -70 -71c-15 -6 -32 -6 -48 -6c-29 0 -59 7 -86 19c19 -33 37 -69 70 -90c19 -13 41 -18 64 -18c55 0 100 27 142 52v-47c-38 -31 -73 -52 -127 -52h-64
c-35 0 -62 34 -81 63c-17 25 -29 52 -43 79c-34 -53 -67 -106 -100 -160c-13 7 -26 11 -40 18zM334 187c37 0 73 23 90 56c3 5 5 12 5 18c0 7 -2 13 -7 17c-7 6 -16 8 -25 8c-5 0 -10 1 -15 0c-43 -6 -79 -33 -109 -61l-15 -15c22 -15 49 -23 76 -23zM360 446
c38 27 56 35 80 75c4 7 8 16 8 24c0 3 2 7 0 10c-8 11 -26 17 -40 17c-16 0 -27 -18 -34 -31c-21 -36 -34 -87 -48 -126c2 2 33 30 34 31z" />
    <glyph glyph-name="l" unicode="l" horiz-adv-x="465" 
d="M231 -3c-41 0 -83 25 -98 65c-3 9 -4 19 -4 28c0 22 6 45 9 65c-78 -67 -91 -83 -138 -93v47c61 41 108 98 160 149c32 102 67 203 122 295c14 25 26 52 48 71c12 9 28 15 42 15c7 0 15 -1 21 -4c30 -12 46 -46 46 -77s-11 -60 -29 -85c-50 -79 -111 -151 -174 -220
c-8 -9 -17 -17 -24 -27c-5 -14 -6 -28 -10 -42c-5 -22 -10 -44 -10 -67c0 -7 1 -15 2 -23c8 -24 42 -32 84 -32c72 0 166 26 187 47v-47c-31 -26 -73 -39 -111 -49c-40 -9 -81 -16 -123 -16zM380 534c4 6 6 15 6 23s-2 17 -8 23c-7 2 -12 -5 -17 -9c-17 -17 -28 -39 -40 -59
c-14 -26 -24 -47 -31 -63c-12 -27 -72 -139 -72 -147c0 0 138 193 162 232z" />
    <glyph glyph-name="m" unicode="m" horiz-adv-x="947" 
d="M238 21c6 41 47 231 47 316c0 22 -3 37 -10 40c-125 -166 -176 -262 -275 -315v47c105 73 216 338 280 346c50 -7 67 -46 75 -94c31 32 51 74 95 93c15 6 28 10 39 10c15 0 28 -5 42 -16c33 -25 37 -50 37 -75c28 26 36 42 82 78c9 7 19 11 31 11c16 0 34 -6 53 -27
c29 -42 33 -79 33 -130c0 -21 -1 -44 -1 -72c0 -35 -8 -64 -8 -90c0 -17 4 -33 15 -48c8 -5 17 -7 27 -7h20c40 0 88 1 127 21v-47c-55 -28 -106 -45 -147 -45c-67 0 -110 41 -110 141c0 20 2 42 5 66c4 35 10 65 10 89c0 27 -7 48 -31 67c-96 -21 -153 -269 -161 -331
c-7 -47 -28 -49 -47 -49c-4 10 -6 23 -6 38c0 86 54 244 54 312c0 19 -4 31 -14 33c-55 0 -71 -22 -102 -76c-47 -87 -64 -201 -98 -307c-5 -4 -11 -6 -16 -6c-17 0 -36 14 -46 27z" />
    <glyph glyph-name="n" unicode="n" horiz-adv-x="776" 
d="M320 0c-15 0 -26 10 -37 18c23 88 66 175 66 267v50s-1 33 -6 49c-2 8 -11 16 -19 12c-18 -8 -28 -27 -38 -43c-26 -46 -40 -100 -75 -141c-36 -45 -74 -91 -126 -119c-27 -16 -56 -20 -85 -31v47c61 20 110 75 151 123c40 44 57 103 86 154c12 21 26 43 45 59
c12 10 29 17 45 17c8 0 17 -2 25 -6c23 -9 38 -31 45 -54c5 -16 8 -33 8 -50c29 43 65 83 113 103c10 4 20 6 30 6c18 0 36 -6 50 -17c25 -19 36 -51 37 -82v-10c0 -81 -37 -155 -37 -240c0 -11 2 -22 5 -33c3 -10 13 -20 25 -18c41 0 124 28 148 48v-47
c-37 -27 -77 -49 -124 -57c-10 -3 -20 -5 -31 -5c-13 0 -25 3 -36 10c-27 16 -41 58 -45 88c-1 6 0 11 0 17c0 67 45 150 45 227c0 15 -2 31 -7 46c-3 8 -10 11 -19 11c-10 0 -21 -4 -30 -9c-31 -14 -53 -40 -74 -66c-43 -60 -65 -133 -86 -203c-11 -39 -20 -78 -34 -115
c-3 -5 -9 -7 -15 -6z" />
    <glyph glyph-name="o" unicode="o" horiz-adv-x="537" 
d="M258 0c-30 0 -56 14 -76 36c-29 32 -31 128 -43 138c-36 -40 -80 -86 -139 -112v47c60 23 85 70 113 113c17 26 33 52 51 77c37 50 78 100 130 136c25 17 55 28 86 28c10 0 21 -1 31 -4c37 -8 73 -35 85 -72c9 -23 13 -48 13 -72c0 -31 -6 -61 -16 -89
c-14 -39 -32 -80 -51 -116c18 -4 37 -8 55 -8c14 0 27 2 40 8v-48c-13 -6 -29 -9 -46 -9c-30 0 -63 8 -84 15c-35 -36 -82 -58 -132 -68c-5 -1 -17 0 -17 0zM265 46c34 0 67 16 91 39c-40 14 -71 48 -99 80c-16 19 -30 41 -37 66c-2 6 -4 12 -5 19c-12 -19 -20 -40 -20 -62
c0 -40 0 -84 23 -118c11 -14 29 -24 47 -24zM392 125c27 47 45 68 61 150c2 11 3 22 3 33c0 14 -1 28 -3 43c-7 42 -29 57 -55 57c-42 0 -94 -37 -115 -60c-7 -10 -17 -19 -19 -31c-1 -8 -2 -16 -2 -24c0 -24 6 -48 17 -69c14 -23 31 -43 49 -62c18 -18 38 -33 63 -39
c0 1 1 1 1 2z" />
    <glyph glyph-name="A" unicode="A" horiz-adv-x="615" 
d="M300 100c131 130 182 328 239 482c-178 -21 -400 -162 -467 -323c-14 -33 -23 -78 -23 -116c0 -16 2 -32 5 -48c10 -23 28 -37 46 -45c14 -7 30 -10 47 -10c18 0 38 4 57 9c38 12 73 32 96 51zM372 97c-29 -41 -87 -76 -148 -94c-27 -7 -54 -10 -80 -10
c-21 0 -41 1 -59 7c-41 14 -72 44 -81 97c-3 15 -4 30 -4 45c0 28 4 56 11 84c73 223 283 360 493 410c21 4 42 9 63 12c23 -6 30 -21 30 -39c0 -15 -6 -32 -10 -47c-27 -95 -92 -234 -139 -343c-11 -26 -12 -53 -12 -76v-10c0 -52 6 -82 39 -82c26 0 69 15 140 58v-46
c-32 -39 -102 -72 -150 -72c-52 0 -80 37 -93 106z" />
    <glyph glyph-name="B" unicode="B" horiz-adv-x="587" 
d="M0 3c73 227 146 453 219 679c5 9 14 13 24 13c11 0 23 -6 26 -17c0 -1 1 -3 1 -5c0 -13 -8 -37 -12 -47c42 30 94 48 146 48c15 0 29 -1 43 -4c85 -18 135 -85 135 -157c0 -34 -11 -69 -35 -100c-42 -44 -90 -76 -140 -94c61 -38 94 -83 94 -141c0 -14 -2 -27 -5 -42
c-2 -11 -6 -22 -10 -33c21 0 79 1 101 6v-47c-20 -5 -57 -8 -89 -8c-16 0 -31 1 -42 2c-11 -12 -25 -24 -40 -32c-44 -25 -87 -37 -127 -37c-82 0 -148 63 -192 147c-15 -44 -33 -103 -48 -148zM390 69c-99 25 -196 76 -252 92c40 -44 103 -118 156 -118c36 0 69 9 96 26z
M431 109c14 19 21 43 21 69c0 6 -1 13 -2 20c-9 57 -92 86 -135 109c-8 4 -11 13 -11 22c0 10 4 20 14 22c70 16 147 43 188 95c16 24 24 47 24 68c0 61 -60 108 -128 108c-7 0 -15 -1 -22 -2c-49 -8 -97 -31 -128 -70c-29 -33 -46 -74 -58 -115l-65 -205
c76 -30 186 -101 302 -121z" />
    <glyph glyph-name="C" unicode="C" horiz-adv-x="481" 
d="M237 -19c-119 0 -217 99 -232 203c-3 22 -5 44 -5 66c0 46 8 90 25 133c64 162 193 321 366 321c17 0 35 -2 53 -5c48 -9 87 -46 106 -89c12 -28 18 -58 18 -89c0 -26 -5 -52 -13 -77c-16 4 -33 9 -49 14c5 19 8 40 8 61c0 54 -19 107 -65 124c-23 8 -46 12 -67 12
c-127 0 -224 -129 -280 -228c-31 -55 -53 -119 -53 -183c0 -15 1 -31 4 -46c18 -96 96 -167 187 -167c65 0 193 50 241 79v-48c-59 -36 -173 -81 -244 -81z" />
    <glyph glyph-name="D" unicode="D" horiz-adv-x="725" 
d="M239 36c-32 -44 -57 -69 -125 -69c-36 0 -75 10 -93 45c-10 20 -19 44 -19 69c0 32 21 66 67 66c61 0 103 -20 127 -30c7 -3 16 -8 27 -15c79 138 109 266 165 408c6 41 14 71 16 80c8 30 37 66 93 66c124 0 179 -148 191 -205c5 -24 8 -48 8 -72
c0 -115 -60 -199 -121 -277c27 -23 48 -32 65 -32c32 0 53 11 85 39v-47c-27 -24 -56 -38 -98 -38c-23 0 -51 11 -85 40c-13 -15 -26 -28 -39 -40c-32 -31 -61 -42 -88 -49c-9 -2 -18 -3 -27 -3c-12 0 -24 2 -33 4c-27 8 -74 35 -116 60zM384 351c-26 -75 -49 -141 -94 -230
c-7 -14 -15 -29 -23 -44c40 -23 83 -50 97 -54c10 -3 19 -4 27 -4c7 0 14 1 21 3c32 8 74 54 95 78c-27 34 -56 59 -87 123c-21 41 -31 85 -36 128zM195 61c-9 5 -17 9 -19 10c-24 10 -56 26 -107 26c-17 0 -17 -3 -17 -16s6 -31 13 -45c6 -11 33 -18 58 -18c13 0 22 1 32 5
c7 3 24 17 40 38zM540 139c57 73 106 146 106 243c0 19 -2 39 -6 59c-12 53 -62 165 -147 165c-30 0 -39 -18 -41 -28c-3 -10 -21 -94 -21 -163c0 -57 8 -119 33 -170c29 -57 54 -77 76 -106z" />
    <glyph glyph-name="E" unicode="E" horiz-adv-x="413" 
d="M194 -26c-115 0 -194 96 -194 189c0 34 11 68 34 97c41 50 104 82 168 82c-37 34 -52 74 -52 114c0 45 20 89 50 124c34 40 83 67 132 67c39 0 78 -18 109 -60c25 -35 34 -78 34 -121h-50c0 39 -10 81 -43 105c-20 15 -41 21 -61 21c-63 0 -115 -68 -115 -134
c0 -16 3 -31 9 -46c19 -42 85 -56 94 -88c1 -3 1 -6 1 -8c0 -12 -7 -24 -18 -24c-64 0 -137 -5 -184 -35c-28 -18 -53 -49 -57 -82c-1 -8 -2 -15 -2 -23c0 -92 92 -128 175 -128c53 0 150 49 189 85v-47c-56 -52 -143 -88 -219 -88z" />
    <glyph glyph-name="F" unicode="F" horiz-adv-x="689" 
d="M178 -12c-74 0 -132 69 -156 133c-9 25 -21 55 -21 83c0 10 -1 21 6 30c5 7 15 6 22 6c27 0 57 -13 78 -31c19 -16 97 -72 198 -103c6 8 10 16 14 25c26 59 50 121 73 181h-79v50h97c29 82 53 166 77 250c-28 9 -58 15 -88 15c-34 0 -68 -7 -99 -23
c-19 -9 -36 -30 -53 -30c-9 0 -18 5 -26 20c-3 5 -4 9 -4 14c0 22 39 31 57 43c36 24 80 26 124 26h34c50 0 95 -28 142 -43c17 -5 34 -8 51 -8c38 0 76 11 112 21c19 6 37 24 53 24c9 0 17 -5 24 -22c2 -4 3 -8 3 -12c0 -27 -48 -34 -69 -42c-37 -14 -78 -22 -118 -22
c-32 0 -65 5 -95 18c-22 -77 -44 -154 -70 -229h100v-50h-118c-28 -74 -52 -151 -91 -220c28 -6 57 -9 87 -9c45 0 201 7 246 26v-47c-50 -24 -213 -33 -263 -33c-37 0 -73 5 -107 13c-37 -35 -89 -54 -141 -54zM258 59c-102 37 -180 95 -198 113c18 -53 50 -110 104 -128
c10 -3 20 -5 30 -5c23 0 45 8 64 20z" />
    <glyph glyph-name="G" unicode="G" horiz-adv-x="733" 
d="M376 -9c-145 0 -165 84 -197 103c-71 -32 -122 -21 -179 -32v47c33 9 109 2 158 36c-13 23 -29 54 -29 80c0 12 3 23 12 31c9 9 18 12 29 12c34 0 75 -37 101 -37h4c38 25 104 63 142 111c-20 31 -29 70 -29 109c0 37 8 74 23 105c21 44 69 86 119 86c9 0 18 -1 27 -4
c30 -10 37 -41 37 -72c0 -14 -1 -28 -3 -40c-10 -69 -49 -129 -95 -179c9 -2 18 -3 26 -3c44 0 85 26 125 50c32 19 57 59 88 68c3 1 7 1 10 1c15 0 23 -9 23 -21c0 -2 0 -5 -1 -7c-24 -124 -70 -231 -145 -318c-8 -9 -17 -18 -26 -27c10 -1 20 -1 30 -1c38 0 74 6 107 20
v-47c-48 -17 -92 -24 -135 -24c-20 0 -41 2 -60 5c-51 -34 -106 -52 -162 -52zM202 176c10 4 22 20 25 23c-8 10 -37 16 -37 16c-8 -1 -7 -9 -7 -12c0 -9 13 -23 19 -27zM455 377c26 28 58 66 76 103c11 22 23 49 23 72c0 14 -4 26 -14 35c-6 6 -13 8 -19 8
c-38 0 -73 -86 -77 -113c-3 -23 -7 -45 -7 -63c0 -20 4 -35 18 -42zM462 62c-79 27 -140 72 -182 103c-24 -18 -30 -23 -47 -33c18 -32 45 -51 67 -67s50 -22 78 -22c29 0 57 7 84 19zM529 101c59 41 90 111 121 174c15 29 28 59 40 90c-57 -50 -104 -80 -160 -80
c-23 0 -48 5 -76 16c-38 -26 -92 -73 -127 -99c41 -39 118 -81 202 -101z" />
    <glyph glyph-name="H" unicode="H" 
d="M322 78c0 71 -8 176 -22 200c-26 45 -64 55 -89 55c-12 0 -20 -2 -23 -4c-4 -12 -8 -25 -12 -37c0 -28 11 -70 43 -130c26 -50 62 -74 103 -84zM321 9v19c-58 10 -112 44 -147 110c-11 22 -19 42 -26 62l-82 -205l-44 13l113 334c37 111 69 210 72 224c2 11 4 18 4 24
c0 7 -3 11 -12 19c-5 5 -20 2 -29 -3l-129 -98l-30 40l130 99l2 2s21 14 46 14c14 0 30 -4 44 -17c22 -19 26 -40 26 -59c0 -11 -1 -20 -2 -29c-1 -5 -23 -80 -52 -174h6c42 0 98 -20 133 -82c18 -32 23 -89 26 -143l158 476l48 -15l-181 -543c42 6 95 11 132 32v-47
c-47 -27 -92 -34 -149 -37l-8 -25c-5 -0 -49 9 -49 9z" />
    <glyph glyph-name="I" unicode="I" horiz-adv-x="690" 
d="M525 -6c-73 0 -94 31 -120 74c-48 -30 -100 -54 -156 -65c-23 -5 -47 -9 -70 -9c-15 0 -30 1 -45 6c-39 12 -72 42 -94 77c-31 51 -40 111 -40 169c0 9 1 19 7 27c78 -52 169 -84 263 -84h6c11 0 22 -1 29 -9c6 -9 7 -23 -1 -31c-6 -5 -13 -6 -20 -6c-5 0 -11 1 -16 1
c-77 0 -154 22 -223 56c7 -47 21 -96 56 -130c21 -21 50 -31 79 -31c80 0 157 21 206 70c-12 52 -16 105 -16 158c0 100 32 200 85 284c32 46 71 94 125 94c6 0 13 0 20 -2c49 -18 53 -72 53 -118v-30c0 -104 -53 -202 -112 -288c-28 -41 -65 -77 -99 -114
c12 -30 43 -47 75 -52c3 -1 6 -1 10 -1c56 0 161 66 163 69v-47c-54 -39 -107 -68 -165 -68zM590 398c5 24 25 98 25 150c0 31 -7 55 -30 55c-74 -8 -109 -99 -130 -153c-34 -87 -39 -182 -39 -274c0 -13 4 -25 9 -37c75 71 135 173 165 259z" />
    <glyph glyph-name="J" unicode="J" horiz-adv-x="393" 
d="M198 10c-59 -26 -120 -69 -131 -102c-2 -6 -3 -13 -3 -18c0 -21 14 -36 32 -36c14 0 31 9 46 29c33 42 56 127 56 127zM119 231c-7 20 -10 41 -10 64c0 89 49 190 79 236c40 64 93 88 119 93c4 0 7 1 11 1c19 -1 81 -4 100 -62c6 -16 8 -30 8 -43c0 -18 -4 -36 -8 -59
c-19 -118 -106 -279 -147 -384c58 12 122 32 122 32v-47c-1 0 -33 -17 -80 -27c13 -13 27 -27 41 -43l-19 -16l-19 -16l-66 62s-24 -112 -66 -167c-14 -18 -32 -33 -47 -44c-9 -6 -19 -9 -31 -9c-7 0 -14 1 -23 2c-10 1 -20 5 -30 9c-24 11 -48 33 -48 67c0 10 2 21 7 33
c24 55 116 139 196 154c-34 38 -66 88 -89 164zM232 116c0 0 93 210 136 350c6 19 10 36 10 52c0 14 -3 28 -10 43c-6 12 -22 15 -36 15c-8 0 -14 -1 -17 -2c-10 -1 -53 -19 -85 -69c-44 -70 -65 -139 -65 -203c0 -68 23 -131 67 -186z" />
    <glyph glyph-name="K" unicode="K" horiz-adv-x="559" 
d="M80 -10c-15 5 -29 10 -44 14c55 175 112 349 165 524c3 11 7 25 7 38s-4 25 -14 33c-4 2 -7 2 -11 2c-29 0 -66 -37 -79 -53c-24 -28 -43 -60 -61 -92c-14 9 -29 18 -43 27c27 47 58 95 100 131c23 20 53 35 84 35c4 0 7 -1 11 -1c43 -9 57 -53 57 -94
c0 -14 -2 -28 -5 -39c-15 -51 -30 -97 -44 -144c128 87 257 175 386 263c8 -14 17 -27 26 -41l-417 -282c41 -87 90 -171 146 -249c16 -12 33 -17 51 -17c47 0 131 41 164 64v-47c-47 -34 -105 -63 -164 -63h-7c-26 0 -54 6 -72 26c-60 74 -108 159 -148 238
c-28 -91 -57 -183 -86 -274z" />
    <glyph glyph-name="L" unicode="L" horiz-adv-x="743" 
d="M362 14c-25 15 -47 35 -68 55c-36 -34 -74 -72 -123 -85c-11 -3 -23 -4 -35 -4c-36 0 -72 13 -99 36c-21 18 -31 41 -31 64s10 46 31 61c35 27 75 38 115 38c30 0 60 -6 88 -18c16 -6 31 -14 47 -20c59 83 93 192 130 275c-89 2 -171 28 -225 88l31 37
c61 -48 139 -77 217 -78c40 62 73 130 126 183c29 28 66 52 108 53h2c35 0 65 -29 75 -62c3 -9 4 -19 4 -29c0 -28 -12 -57 -31 -79c-49 -53 -116 -89 -186 -105c-21 -4 -44 -7 -66 -8c-42 -110 -77 -216 -141 -306c20 -21 46 -37 73 -50s56 -18 85 -18c67 0 206 29 254 67
v-47c-51 -52 -194 -78 -263 -78c-43 0 -84 10 -118 30zM123 28c50 4 99 30 129 70c-27 25 -58 34 -90 34c-21 0 -42 -4 -62 -10c-16 -5 -35 -11 -44 -27c-2 -3 -3 -7 -3 -11c0 -8 5 -16 11 -22c15 -15 33 -34 56 -34h3zM630 514c27 17 49 40 69 65c7 9 10 18 10 27
c0 23 -18 42 -36 42c-3 0 -6 0 -9 -1c-25 -9 -44 -28 -63 -45c-35 -35 -71 -81 -96 -124h5c81 0 104 26 120 36z" />
    <glyph glyph-name="M" unicode="M" horiz-adv-x="803" 
d="M286 4c45 142 91 283 135 426c7 23 12 47 12 71c0 20 -4 40 -12 59c-10 23 -27 32 -47 32c-18 0 -37 -8 -52 -22c-36 -35 -71 -59 -93 -104c-71 -147 -115 -325 -157 -464c-17 6 -33 11 -50 16c51 168 103 335 154 503c3 11 6 23 6 35c0 8 -2 16 -6 24
c-8 7 -16 10 -24 10c-25 0 -47 -27 -61 -44c-18 -22 -32 -48 -47 -71h-3c-11 0 -33 19 -41 24c22 46 50 92 91 124c22 13 43 21 65 21c13 0 26 -3 40 -10c17 -9 30 -27 34 -46c2 -9 3 -19 3 -28v-10c27 34 57 67 97 85c14 6 29 8 43 8c43 0 83 -23 99 -62
c5 -13 8 -27 10 -41c31 43 69 83 119 105c15 6 31 9 47 9c24 0 48 -7 67 -21c25 -20 37 -51 40 -82v-13c0 -110 -48 -225 -88 -316c-16 -38 -27 -74 -41 -113c-2 -7 -3 -13 -3 -18c0 -25 25 -32 53 -32c5 0 10 1 15 1c18 2 97 38 112 49v-47c-32 -29 -66 -49 -109 -58
c-9 -2 -18 -3 -27 -3c-46 0 -93 25 -102 68c-3 11 -4 23 -4 34c0 10 1 20 3 29c36 123 101 231 127 344c3 13 5 28 5 43c0 18 -3 36 -8 50c-11 19 -31 27 -51 27c-17 0 -35 -6 -48 -16c-63 -48 -106 -118 -125 -190c-46 -145 -93 -325 -122 -386h-56z" />
    <glyph glyph-name="N" unicode="N" horiz-adv-x="581" 
d="M333 19c-4 10 -6 21 -6 31c0 15 3 29 9 42c45 128 91 256 129 386c4 16 8 33 8 50c0 15 -3 29 -10 43c-15 21 -38 29 -61 29c-24 0 -47 -8 -62 -21c-45 -37 -85 -99 -103 -149c-56 -145 -105 -295 -154 -443c-17 4 -34 10 -50 16c37 109 83 247 109 326
c25 75 40 112 59 191c1 11 3 25 3 38c0 25 -6 49 -30 49c-3 0 -6 0 -10 -1c-48 -24 -87 -86 -116 -124c-12 0 -37 19 -48 25c35 49 71 100 120 136c16 11 35 16 53 16c11 0 22 -2 32 -5c41 -18 52 -52 52 -91c35 56 89 94 146 94c17 0 34 -4 51 -11c39 -18 65 -59 69 -101
c1 -6 1 -12 1 -17c0 -44 -16 -85 -28 -126c-36 -111 -78 -219 -114 -329c-1 -7 -2 -14 -2 -20c0 -10 3 -17 16 -19c62 4 138 45 185 75v-46c-59 -40 -128 -84 -188 -84c-26 0 -52 15 -60 40z" />
    <glyph glyph-name="O" unicode="O" horiz-adv-x="588" 
d="M286 581c21 4 43 7 63 7c31 0 61 -6 85 -20l-12 -22l-12 -22c-16 9 -37 14 -62 14c-26 0 -54 -5 -83 -15c-4 -2 -8 -3 -12 -5c-1 -2 -1 -3 -1 -5c-3 -15 -4 -32 -4 -49c0 -113 56 -262 101 -301c18 -17 34 -30 49 -40c45 45 81 108 102 173c14 44 21 82 21 118
s-7 70 -19 106c-19 56 -76 93 -132 93c-14 0 -28 -3 -41 -7c-15 -6 -29 -14 -43 -25zM404 62c-9 -8 -19 -15 -29 -21c-54 -35 -120 -54 -181 -54c-28 0 -55 4 -80 13c-81 29 -104 104 -107 131c-3 26 -4 50 -4 74c0 115 35 204 113 283c26 25 55 46 86 62c3 1 6 3 9 4
c3 8 6 16 10 24c6 11 14 22 23 32c21 20 44 34 69 43c19 6 38 9 57 9c78 0 153 -48 180 -126c14 -40 21 -80 21 -122s-7 -86 -23 -134c-22 -66 -58 -131 -104 -181c17 -6 28 -9 42 -9c22 0 48 7 102 19v-47c-55 -13 -85 -22 -112 -22c-22 0 -42 7 -72 22zM359 90
c-14 10 -28 22 -44 35c-62 55 -118 212 -118 338c0 9 0 18 1 27c-16 -11 -32 -24 -46 -38c-68 -68 -99 -142 -99 -244c0 -22 1 -46 4 -71c2 -16 18 -70 73 -89c19 -7 40 -10 64 -10c50 0 108 16 155 45c3 2 6 5 10 7z" />
    <glyph glyph-name="P" unicode="P" horiz-adv-x="526" 
d="M65 510l-3 25c30 3 54 18 88 44c45 35 102 103 107 109s12 9 19 9c6 0 12 -2 17 -7c7 -6 10 -16 7 -25l-29 -94l6 3c52 34 123 54 187 54c24 0 47 -3 68 -9c50 -15 88 -52 88 -109c0 -13 -2 -27 -6 -42c-38 -130 -265 -218 -452 -258l-72 -239l-24 7l-24 7l65 214
c-38 -7 -73 -12 -103 -14l-2 25l-2 25c36 3 78 9 123 19l97 321c-12 -12 -26 -25 -40 -36c-34 -26 -68 -49 -112 -54zM179 267c172 43 361 125 387 215c4 12 5 22 5 32c0 31 -20 47 -53 57c-15 4 -33 6 -52 6c-53 0 -118 -16 -163 -45c-39 -25 -60 -64 -75 -103z" />
    <glyph glyph-name="Q" unicode="Q" horiz-adv-x="560" 
d="M283 84c-33 22 -44 35 -96 44c-20 4 -35 5 -49 5c-28 0 -44 -7 -58 -14c-16 -9 -30 -25 -30 -42c0 -5 2 -11 5 -16c19 -29 40 -36 103 -36c36 0 91 34 125 59zM370 87c22 -16 41 -28 51 -31c3 -1 7 -1 11 -1c39 0 113 47 127 54v-47c-19 -10 -75 -57 -128 -57
c-8 0 -16 1 -24 3c-27 8 -52 28 -79 47c-30 -22 -101 -80 -170 -80c-65 0 -114 9 -145 60c-9 15 -13 29 -13 43c0 40 34 73 56 85s48 20 85 20c16 0 34 -2 54 -5c69 -12 93 -38 128 -60c1 0 2 -1 3 -2c35 28 102 89 119 109c22 26 69 98 86 149c13 38 24 77 24 111
c0 16 -3 31 -9 44c-17 34 -46 60 -97 60c-12 0 -25 -1 -39 -4c-76 -17 -108 -64 -160 -124c-43 -50 -88 -210 -88 -210l-24 6l-24 6s41 164 98 230c48 56 92 120 188 140c17 4 33 5 48 5c70 0 118 -38 142 -87c11 -22 15 -46 15 -70c0 -43 -14 -87 -26 -123
c-21 -61 -70 -133 -96 -165c-20 -25 -75 -74 -113 -106z" />
    <glyph glyph-name="R" unicode="R" horiz-adv-x="582" 
d="M0 3c70 213 141 426 212 638c16 -4 31 -10 47 -15c34 12 74 20 114 20c45 0 88 -10 118 -34c30 -26 54 -61 59 -100c0 -6 1 -11 1 -17c0 -94 -57 -149 -145 -172c-52 -16 -108 -17 -163 -17h-28h-27c13 -37 55 -103 80 -137c29 -41 59 -83 103 -109c16 -5 32 -8 47 -8
c64 0 147 49 164 57v-47c-40 -25 -69 -62 -128 -67h-17c-104 0 -154 45 -201 130c-37 51 -64 97 -92 146c-32 -95 -63 -190 -95 -285zM491 529c-26 56 -82 65 -135 65h-9c-24 -2 -50 -4 -69 -19c-25 -18 -42 -44 -56 -70c-18 -51 -33 -99 -49 -146h60c65 0 133 2 186 22
c44 24 81 67 81 111c0 13 -3 25 -9 37z" />
    <glyph glyph-name="S" unicode="S" horiz-adv-x="682" 
d="M539 228c1 -6 2 -13 3 -18c1 -9 1 -19 1 -28c0 -42 -8 -82 -25 -115c-5 -12 -13 -23 -22 -33c5 1 10 2 14 4c42 14 146 58 172 71v-47c-27 -14 -107 -55 -156 -72c-18 -6 -38 -9 -57 -9h-8c-8 0 -15 1 -23 2c-6 -4 -12 -7 -17 -11c-24 -13 -46 -23 -67 -23
c-29 0 -123 7 -173 52c-15 -6 -26 -9 -38 -10h-3c-57 0 -140 71 -140 71v47c7 0 104 -66 144 -66c3 0 6 0 8 1c-14 27 -54 96 -54 150c0 19 5 37 20 49c2 2 5 4 7 4c5 2 9 3 14 3c48 0 91 -89 104 -102c13 -12 30 -27 50 -42c76 38 155 87 169 105c4 5 8 10 12 16
c4 4 8 9 12 15c0 2 -1 4 -1 6c-4 19 -10 39 -18 58c-17 40 -25 93 -25 143c0 32 3 63 10 89c17 72 60 121 114 121c8 0 16 -1 24 -3c29 -7 56 -27 78 -57c18 -24 25 -50 25 -78c0 -100 -95 -220 -149 -287c-1 -2 -3 -4 -5 -6zM369 3c-29 12 -57 28 -81 44
c-18 -8 -35 -16 -51 -24c38 -17 99 -24 117 -24c1 0 7 1 15 4zM199 62c13 5 29 12 44 19c-13 11 -25 22 -34 31c-21 20 -40 49 -58 71c6 -35 33 -92 48 -121zM340 74c24 -15 51 -28 77 -35l9 -3c4 3 7 6 10 8c17 14 30 30 38 45c11 22 17 50 19 82c-30 -29 -90 -64 -153 -97
zM525 291c60 77 116 170 116 234c0 17 -4 32 -13 44c-18 23 -35 35 -50 39c-3 1 -7 1 -10 1c-24 0 -52 -20 -68 -83c-5 -21 -8 -46 -8 -72c0 -46 8 -95 21 -129c5 -11 9 -23 12 -34z" />
    <glyph glyph-name="T" unicode="T" horiz-adv-x="643" 
d="M64 38c-47 46 -61 112 -64 171c1 12 12 23 24 23c3 0 5 0 8 -1c33 -14 144 -89 245 -137c6 7 12 15 17 22c63 145 110 265 169 456c-22 13 -47 19 -72 19c-18 0 -36 -3 -53 -9c-43 -13 -83 -38 -114 -72c-12 13 -24 25 -37 37c49 50 112 87 182 97c7 1 14 2 21 2
c49 0 80 -26 120 -44c29 -8 57 -12 82 -12c58 0 107 20 155 61c12 -13 24 -26 34 -40c-59 -48 -121 -76 -188 -76c-26 0 -54 5 -82 14c-40 -118 -72 -239 -118 -355c-18 -48 -38 -89 -62 -122c18 -7 35 -11 50 -14c9 -1 19 -2 30 -2c88 0 213 47 232 53v-47
c-28 -10 -155 -57 -241 -57c-10 0 -19 1 -28 2c-26 4 -53 13 -80 24c-33 -27 -72 -43 -122 -43h-2c-41 0 -77 23 -106 50zM235 59c-81 43 -154 98 -176 104c13 -55 46 -113 99 -125h7c26 0 50 8 70 21z" />
    <glyph glyph-name="U" unicode="U" horiz-adv-x="630" 
d="M408 -7c-22 17 -29 56 -36 65c-38 -38 -81 -77 -135 -83c-5 -1 -10 -1 -15 -1c-50 0 -100 30 -125 76c-5 8 -7 20 -7 35c0 89 73 277 107 360c11 28 21 59 21 85c0 27 -11 47 -44 47c-7 0 -15 -1 -24 -3c-44 -10 -66 -56 -108 -97c-1 -1 -3 -1 -5 -1c-13 0 -35 28 -37 35
c54 51 100 140 174 140h4c85 -3 108 -35 108 -83c0 -17 -3 -37 -7 -59c-21 -109 -87 -233 -119 -347c-5 -17 -7 -32 -7 -45c0 -49 31 -70 69 -70c43 0 97 27 130 70c73 185 134 368 195 542c20 -6 53 -6 53 -29c0 -4 -1 -9 -3 -14c-63 -155 -119 -316 -176 -472
c-3 -14 -4 -27 -4 -39c0 -20 4 -38 16 -52c12 -13 25 -19 40 -19c54 0 122 44 157 75v-47c-54 -56 -102 -84 -152 -84h-15c-16 0 -37 2 -55 15z" />
    <glyph glyph-name="V" unicode="V" horiz-adv-x="548" 
d="M189 1c-55 1 -101 49 -101 104v5c1 67 27 131 47 195c24 75 55 147 80 222c1 4 1 8 1 12c0 25 -17 51 -40 51c-7 0 -15 -3 -23 -9c-45 -36 -79 -83 -115 -127c-14 11 -38 22 -38 35c0 6 4 12 13 18c40 47 78 101 135 130c9 3 18 4 27 4c35 0 71 -19 84 -54
c6 -14 9 -28 9 -42c0 -34 -14 -67 -27 -98c-37 -101 -78 -202 -99 -308c-1 -7 -2 -15 -2 -23c0 -27 9 -57 38 -62c4 -1 9 -2 13 -2c36 0 56 42 78 66c104 143 192 298 278 452c13 17 19 55 43 55c4 0 8 -1 12 -3c23 -17 52 -27 81 -27c18 0 36 4 52 12c17 10 25 32 41 32
c5 0 11 -2 19 -9c10 -3 14 -8 14 -13c0 -16 -26 -38 -38 -47c-26 -19 -58 -27 -89 -27c-28 0 -56 6 -80 18c-87 -165 -173 -333 -289 -481c-31 -33 -66 -79 -116 -79h-8z" />
    <glyph glyph-name="W" unicode="W" horiz-adv-x="708" 
d="M312 57c-1 27 -13 16 -26 0c-36 -42 -105 -70 -154 -70c-7 0 -14 1 -20 2c-47 18 -68 71 -68 119c0 7 0 13 1 20c18 141 85 250 119 372c6 22 16 38 16 58c0 3 0 7 -1 11c-2 9 -10 12 -18 12c-5 0 -10 -1 -15 -3c-26 -8 -49 -32 -70 -50c-16 -13 -31 -40 -46 -40
c-7 0 -14 5 -21 17c-7 4 -6 8 -7 14v2c0 19 35 40 46 56c30 29 70 56 112 56c11 0 23 -2 34 -6c31 -7 40 -29 40 -54c0 -18 -5 -37 -11 -53c-25 -110 -77 -211 -107 -319c-9 -29 -19 -60 -19 -91c0 -15 3 -31 9 -46c7 -18 20 -25 34 -25c25 0 57 19 77 30
c38 23 69 58 81 101c56 153 107 309 158 464h56c-47 -144 -94 -287 -144 -429c-2 -29 -11 -62 -11 -92c0 -22 5 -42 19 -58c14 -12 33 -18 51 -18c22 0 43 8 57 24c64 70 92 164 128 251c41 98 72 200 113 298c11 11 21 15 31 15c22 0 42 -19 61 -25c30 -10 75 -5 75 -42
c0 -6 2 -16 2 -24c0 -10 -3 -18 -16 -19h-2c-43 0 -93 28 -122 30c-60 -160 -108 -326 -197 -473c-29 -50 -76 -90 -135 -90h-4c-45 1 -89 34 -106 75z" />
    <glyph glyph-name="X" unicode="X" horiz-adv-x="632" 
d="M1 12l273 322c-16 77 -27 158 -63 230c-8 17 -19 24 -30 24c-21 0 -43 -19 -58 -35l-72 -66c-10 12 -27 22 -27 36c0 5 2 10 8 17c37 32 71 70 114 93c10 5 21 7 32 7c33 0 65 -22 80 -52c33 -62 48 -132 63 -201c76 86 151 173 228 259c17 -7 33 -15 33 -29
c0 -7 -4 -16 -14 -26c-78 -89 -156 -179 -234 -269c12 -69 19 -141 40 -208c11 -35 36 -81 78 -81h3c58 4 145 30 177 76v-47c-39 -54 -113 -81 -183 -81h-6c-60 3 -102 59 -122 110c-22 56 -24 118 -36 177c-84 -97 -167 -193 -251 -290z" />
    <glyph glyph-name="Y" unicode="Y" horiz-adv-x="481" 
d="M129 -84c44 51 97 91 154 126c4 20 23 54 23 70c0 2 -1 4 -2 6c-42 -34 -86 -77 -143 -78c-47 2 -85 44 -85 90c0 5 0 10 1 15c11 66 22 132 43 196c23 70 52 139 74 210c1 5 2 9 2 13c0 17 -13 25 -28 25c-14 0 -28 -8 -41 -19c-35 -29 -63 -58 -96 -87
c-12 11 -28 20 -28 33c0 8 6 17 21 29c38 33 70 71 115 94c11 4 22 7 34 7c32 0 63 -17 69 -51c3 -10 4 -19 4 -28c0 -46 -27 -90 -39 -134c-16 -65 -64 -182 -64 -258c0 -26 6 -48 21 -61c10 -8 18 -11 26 -11c22 0 40 24 63 40c34 25 62 55 92 84c47 137 92 276 138 414
c22 -1 46 -5 46 -26c0 -8 -2 -17 -9 -28c-56 -167 -123 -358 -178 -525c21 5 84 28 139 47v-47c0 -28 -134 -41 -153 -62c-24 -52 -11 -23 -26 -64c-16 -45 -33 -88 -70 -119c-14 -12 -29 -17 -44 -17c-40 0 -75 39 -75 79c0 15 5 24 16 37zM185 -146c32 2 74 90 83 128
c-25 -8 -68 -54 -90 -84c-7 -10 -14 -19 -14 -28s5 -16 16 -16h5z" />
    <glyph glyph-name="Z" unicode="Z" horiz-adv-x="405" 
d="M18 -109c14 54 60 92 101 126c31 25 63 50 99 68c-5 15 -16 16 -28 19c-11 3 -21 4 -31 4c-43 0 -75 -27 -159 -54v55c117 77 259 153 332 274c20 33 45 70 45 110c0 7 -1 15 -3 23c-12 35 -32 80 -73 84c-51 0 -100 -25 -133 -63c-42 -41 -80 -84 -119 -126
c-12 12 -31 16 -31 31c0 6 3 13 11 24c47 52 92 107 147 151c33 20 74 37 114 37c18 0 37 -4 54 -12c50 -32 85 -92 85 -152c0 -20 -4 -40 -13 -59c-47 -114 -139 -201 -233 -276h8c32 0 66 -17 76 -49c17 1 121 3 138 3v-47c-30 -10 -140 -3 -140 -40
c0 -76 -91 -211 -166 -211h-3h-2c-37 0 -77 29 -77 68c0 4 0 8 1 12zM178 -61c15 26 26 54 34 82c-51 -35 -102 -75 -135 -128c-4 -5 -6 -9 -6 -14c0 -9 10 -16 22 -16h2c40 5 64 44 83 76z" />
    <glyph glyph-name="zero" unicode="0" horiz-adv-x="612" 
d="M134 27c-72 43 -105 133 -105 219c0 24 3 48 8 70c36 153 192 333 352 333h4c106 -2 175 -60 187 -169c2 -19 3 -38 3 -56c0 -69 -14 -138 -44 -199c-26 -55 -61 -109 -111 -144c-79 -55 -138 -84 -195 -84c-32 0 -64 10 -99 30zM339 87c59 33 109 83 141 144
c30 57 49 122 49 186c0 21 -2 42 -6 62c-14 67 -70 122 -133 122c-12 0 -24 -2 -36 -6c-114 -38 -222 -163 -249 -271c-5 -20 -7 -40 -7 -60c0 -75 31 -150 84 -189c19 -14 39 -19 59 -19c35 0 70 15 98 31z" />
    <glyph glyph-name="one" unicode="1" horiz-adv-x="331" 
d="M31 -6l211 660l58 -23l-208 -637h-61z" />
    <glyph glyph-name="two" unicode="2" horiz-adv-x="565" 
d="M52 -13c-13 0 -20 13 -20 25c0 2 1 4 1 6c3 16 18 24 29 33c68 55 138 107 203 165c73 65 133 126 182 211c15 27 31 66 31 99c0 28 -12 51 -45 57c-14 3 -26 4 -38 4c-68 0 -113 -39 -162 -89c-17 -16 -32 -33 -47 -49c-14 11 -27 23 -40 35c18 16 34 35 51 53
c61 66 130 109 210 109c13 0 25 -1 38 -3c66 -11 89 -57 89 -108c0 -31 -9 -64 -21 -92c-46 -102 -122 -186 -205 -259c-57 -50 -115 -98 -175 -144h283v-52h-66c-83 0 -165 -1 -240 -1h-58z" />
    <glyph glyph-name="three" unicode="3" horiz-adv-x="591" 
d="M250 -19h-2c-94 0 -183 72 -217 159l44 30c24 -75 99 -138 179 -138c5 0 11 0 16 1c60 6 116 38 146 91c14 25 32 53 32 82c0 6 -1 11 -2 17c-10 42 -55 60 -91 76c-20 4 -29 16 -29 29c0 14 11 29 32 35c65 33 133 80 149 156c1 5 1 9 1 14c0 35 -27 67 -64 73
c-6 1 -13 2 -20 2c-72 0 -171 -54 -220 -97l-27 47c57 47 166 100 251 100c17 0 33 -2 48 -7c47 -16 84 -61 84 -113v-6c-4 -82 -82 -163 -150 -202c30 -12 45 -24 59 -41c21 -23 31 -47 31 -75c0 -10 -1 -20 -4 -31c-24 -95 -97 -181 -196 -198c-17 -3 -33 -4 -50 -4z" />
    <glyph glyph-name="four" unicode="4" horiz-adv-x="572" 
d="M238 -3c30 97 61 191 91 289h-182h-91c-12 3 -19 15 -19 27c0 4 1 7 3 11c30 101 60 208 90 310h57c-30 -97 -59 -193 -89 -290h247c31 97 62 193 92 290h55c-31 -97 -61 -193 -92 -290h139v-58h-156c-30 -99 -60 -193 -91 -292h-54v3z" />
    <glyph glyph-name="five" unicode="5" horiz-adv-x="599" 
d="M257 -25c-60 0 -117 29 -162 67c-24 19 -45 41 -64 65c13 11 26 22 39 34c38 -45 83 -88 140 -108c15 -5 32 -8 48 -8c30 0 61 9 86 26c38 23 68 58 88 97c9 20 13 41 13 62c0 23 -5 46 -12 67c-9 25 -23 52 -49 63c-22 11 -46 16 -71 16c-17 0 -34 -3 -51 -8
c-25 -6 -48 -18 -69 -32c-9 -5 -21 -3 -29 4c-6 6 -8 14 -8 22c0 5 1 10 3 14c37 93 72 186 109 278c7 9 18 11 29 11h7h263v-49h-259c-26 -68 -52 -135 -78 -203c28 10 57 16 86 16c26 0 51 -4 74 -13c26 -9 50 -25 66 -48c29 -40 41 -90 41 -139v-11
c-2 -40 -16 -79 -40 -109c-38 -51 -90 -94 -153 -109c-15 -3 -31 -5 -47 -5z" />
    <glyph glyph-name="six" unicode="6" horiz-adv-x="541" 
d="M216 -20c-101 3 -185 67 -185 162c0 5 0 11 1 17c5 43 21 86 53 116c34 33 67 67 101 100c96 92 191 184 287 277c12 -13 23 -26 37 -38c-93 -89 -185 -179 -278 -268c29 5 58 9 88 9c15 0 29 -1 44 -3c82 -11 118 -76 118 -146c0 -42 -13 -85 -36 -118
c-38 -53 -98 -87 -161 -101c-20 -4 -40 -7 -60 -7h-9zM388 110c19 33 28 63 28 88c0 63 -54 100 -128 102h-5c-53 0 -130 -29 -159 -71c-18 -26 -26 -53 -26 -77c0 -84 65 -120 134 -120c62 0 127 28 156 78z" />
    <glyph glyph-name="seven" unicode="7" horiz-adv-x="612" 
d="M31 0c150 205 328 424 471 602h-314v51h249h124c12 -3 20 -15 20 -27c0 -6 -2 -11 -6 -16l-492 -622z" />
    <glyph glyph-name="eight" unicode="8" horiz-adv-x="593" 
d="M174 -6c-49 4 -96 31 -125 70c-13 20 -18 41 -18 63c0 36 13 73 31 106c33 60 181 154 181 154c0 22 -46 56 -46 95c0 28 11 55 24 78c39 63 113 98 187 98c12 0 25 -1 37 -3c44 -4 117 -25 117 -79c0 -29 -37 -48 -55 -67c-61 -45 -123 -88 -185 -132
c29 -41 68 -76 90 -122c8 -19 12 -39 12 -59c0 -60 -33 -120 -82 -154c-47 -33 -105 -48 -162 -48h-6zM179 47h4c65 0 137 23 170 84c11 19 17 42 17 64c0 25 -7 50 -25 69c-22 27 -44 54 -66 82c-56 -44 -117 -82 -162 -137c-18 -22 -33 -51 -33 -80c0 -13 3 -25 10 -37
c23 -23 53 -41 85 -45zM504 572c-24 31 -69 34 -106 34c-65 -1 -132 -44 -147 -110v-4c0 -30 24 -53 39 -74c74 54 151 106 214 154z" />
    <glyph glyph-name="nine" unicode="9" horiz-adv-x="513" 
d="M284 -13c-16 5 -32 10 -47 15l93 300c-48 -31 -102 -57 -160 -58h-2c-86 0 -135 76 -135 150c0 38 12 74 39 100c52 50 123 94 185 115c59 20 122 26 183 37c3 0 5 1 8 1c18 0 34 -10 34 -26c0 -2 0 -4 -1 -7c-68 -209 -130 -419 -195 -628c-1 1 -1 1 -2 1zM167 297
c70 4 150 45 190 96c26 64 43 132 64 198c-54 -9 -110 -11 -158 -36c-58 -30 -127 -56 -161 -106c-12 -18 -18 -39 -18 -60c0 -47 29 -92 78 -92h5z" />
    <glyph glyph-name="comma" unicode="," horiz-adv-x="352" 
d="M91 -89c12 7 77 60 77 80c0 3 -16 7 -19 9c-8 5 -20 8 -26 16c-5 7 -6 14 -6 23c0 18 16 40 38 47c7 2 15 3 23 3c17 0 34 -3 44 -14c10 -13 17 -34 17 -48s-20 -44 -28 -56c-26 -38 -83 -58 -120 -60z" />
    <glyph glyph-name="quotesingle" unicode="'" horiz-adv-x="307" 
d="M106 504c12 7 46 46 46 65c0 3 -1 5 -3 7c-7 5 -14 10 -19 18c-4 7 -5 14 -5 22c0 18 10 37 29 43c6 2 13 3 20 3c15 0 30 -5 38 -17c9 -12 13 -26 13 -40s-4 -29 -13 -41c-26 -38 -69 -58 -106 -60z" />
    <glyph glyph-name="period" unicode="." horiz-adv-x="307" 
d="M141 1c-25 0 -46 24 -46 48c0 3 1 5 1 8c2 22 22 41 44 41h2c21 0 42 -13 47 -34c2 -5 2 -10 2 -14c0 -15 -6 -30 -18 -38c-9 -7 -20 -11 -32 -11z" />
    <glyph glyph-name="question" unicode="?" horiz-adv-x="589" 
d="M115 -18c-21 0 -39 19 -39 39c0 4 0 7 1 10c4 17 21 30 38 30c2 0 5 -1 7 -1c19 -3 32 -22 32 -40c0 -7 -2 -14 -6 -20c-7 -11 -19 -18 -33 -18zM161 85l-47 16l62 198c4 12 20 12 32 12h16c47 0 97 5 138 30c51 32 97 102 97 164c0 31 -12 60 -41 81
c-24 16 -52 24 -80 24c-9 0 -19 -1 -28 -3c-77 -15 -148 -53 -187 -116c-15 9 -29 19 -44 28c38 58 98 101 162 125c29 11 60 17 91 17c27 0 54 -4 80 -14c76 -29 107 -84 107 -143c0 -67 -39 -138 -99 -183c-63 -48 -132 -60 -202 -61z" />
    <glyph glyph-name="quotedbl" unicode="&#x22;" horiz-adv-x="422" 
d="M249 488c13 27 26 39 26 62c0 3 0 7 -1 11c-21 9 -29 26 -29 42c0 4 1 8 2 12c3 12 24 28 38 30h5c16 0 35 -8 42 -17c9 -12 14 -25 14 -37c0 -11 -4 -22 -11 -33c-15 -27 -44 -57 -73 -69c-4 -2 -8 -3 -13 -4v3zM115 486c14 25 26 34 26 59c0 4 0 8 -1 13
c-21 9 -29 26 -29 42c0 4 1 9 2 13c3 12 24 26 38 30c2 0 4 1 6 1c14 0 32 -8 41 -18c9 -12 14 -25 14 -37c0 -11 -4 -22 -11 -33c-16 -27 -45 -57 -73 -69c-4 -2 -9 -3 -13 -4v3z" />
    <glyph glyph-name="exclam" unicode="!" horiz-adv-x="382" 
d="M97 -15c-19 2 -36 18 -36 36c0 2 0 5 1 7c3 17 19 32 36 32c3 0 6 0 9 -1c16 -4 30 -20 30 -37c0 -3 0 -6 -1 -9c-5 -16 -22 -28 -39 -28zM99 117c58 181 115 361 173 541c16 -5 33 -10 49 -15l-173 -531z" />
    <glyph glyph-name="asciitilde" unicode="~" horiz-adv-x="642" 
d="M429 316h-5c-38 0 -73 20 -98 47c-20 19 -36 42 -60 56c-5 1 -10 2 -14 2l-49 -8c-30 -8 -55 -30 -73 -54c-14 8 -28 19 -43 27c29 45 78 78 131 83c9 1 17 2 26 2c24 0 47 -6 66 -21c32 -22 52 -58 87 -77c10 -4 20 -5 30 -5c20 0 39 6 58 13c18 7 35 17 52 27
c11 -11 22 -32 26 -44c-40 -24 -83 -48 -131 -48h-3z" />
    <glyph glyph-name="at" unicode="@" horiz-adv-x="620" 
d="M335 73c-120 5 -237 99 -253 221c-1 10 -2 20 -2 30c0 88 49 171 115 228c45 38 102 61 161 61c10 0 21 0 31 -2c63 -8 123 -47 144 -108c6 -18 8 -37 8 -55c0 -44 -13 -87 -28 -127c-19 -52 -58 -95 -104 -123c-12 -7 -27 -11 -41 -11c-20 0 -40 7 -53 23
c-7 9 -14 17 -23 17c-4 0 -9 -2 -14 -6c-5 -1 -10 -2 -15 -2c-44 0 -81 42 -85 84c0 4 -1 8 -1 12c0 51 33 96 73 125c31 22 71 36 110 36c17 0 34 -3 50 -8c15 -6 21 -19 21 -33c0 -11 -4 -23 -8 -33c-21 -49 -51 -92 -80 -136c1 -17 11 -24 24 -24s28 6 37 16
c30 31 58 64 69 106c8 27 15 56 15 85c0 24 -5 46 -20 66c-25 32 -66 46 -106 46c-18 0 -36 -3 -53 -8c-73 -21 -129 -83 -159 -151c-10 -24 -16 -51 -16 -77c0 -31 8 -62 24 -89c37 -64 108 -112 182 -112c5 0 10 1 15 1c51 4 84 49 121 79c16 -1 30 -27 35 -37
c-47 -44 -100 -94 -168 -94h-6zM257 273c36 2 51 41 68 67s33 53 49 80c-7 1 -13 2 -20 2c-54 0 -107 -38 -123 -90c-2 -5 -2 -11 -2 -16c0 -19 9 -38 28 -43z" />
    <glyph glyph-name="numbersign" unicode="#" 
d="M149 67l-47 15c12 45 25 89 38 134l-72 -9v52c29 4 58 8 87 11c12 43 25 85 37 127c-28 -3 -56 -6 -84 -10v53l99 12c12 38 23 77 34 116c16 -6 33 -11 49 -16l-27 -93c30 4 59 7 88 10c14 47 27 93 40 139c16 -6 33 -11 49 -16c-11 -38 -22 -77 -33 -115l51 6v-52
l-66 -9c-12 -42 -25 -84 -37 -127c21 3 42 5 63 8l5 -48l-83 -14l-39 -135l-49 16c10 37 21 75 32 112c-30 -4 -59 -8 -88 -11c-15 -52 -30 -105 -45 -157zM299 288l37 128c-30 -4 -59 -8 -88 -11l-37 -128c30 4 59 8 88 11z" />
    <glyph glyph-name="dollar" unicode="$" horiz-adv-x="554" 
d="M296 13l-52 17l16 49c-23 3 -50 14 -66 14l-14 -46l-47 14l13 59c-30 33 -77 62 -92 102l45 15c21 -18 45 -44 67 -62c14 53 29 106 43 159c-30 31 -58 70 -62 115c4 44 45 74 84 86c15 4 27 7 38 10l18 50l48 -13l-11 -42c23 -3 45 -7 61 -21l15 45l49 -14l-15 -59
c28 -20 57 -53 59 -86l-45 -6c-11 9 -17 40 -30 40l-42 -152c31 -24 55 -64 55 -103c0 -12 -2 -23 -6 -34c-13 -34 -41 -64 -78 -70c-11 -2 -22 0 -29 -6zM274 126c13 47 25 94 38 141c-18 9 -44 15 -61 28l-39 -150c19 -10 40 -17 62 -19zM376 202c-3 11 -9 26 -17 25
c-9 -32 -20 -66 -27 -97c27 3 48 28 48 54c0 6 -2 12 -4 18zM372 469c-16 10 -37 23 -53 23c-4 0 -8 -1 -11 -3c-13 -44 -26 -93 -39 -138c17 -10 44 -29 59 -29h4c13 49 26 98 40 147zM250 488c-19 -6 -48 -23 -48 -45c0 -2 0 -5 1 -7c5 -13 14 -35 24 -35z" />
    <glyph glyph-name="percent" unicode="%" horiz-adv-x="570" 
d="M56 149l416 366c11 -12 23 -24 34 -36l-416 -366zM363 73h-2c-41 0 -78 35 -84 76c-1 4 -1 8 -1 12c0 29 16 59 43 75c14 8 30 13 46 13c21 0 42 -7 58 -21c20 -16 31 -42 31 -68c0 -13 -3 -27 -10 -39c-16 -28 -46 -48 -79 -48h-2zM362 125h2c17 0 35 12 37 30v3
c0 15 -8 32 -24 37c-3 1 -7 1 -10 1c-13 0 -26 -5 -32 -17c-4 -6 -5 -12 -5 -18c0 -18 13 -36 32 -36zM230 386h-2c-41 0 -79 36 -84 77c0 3 -1 6 -1 10c0 32 18 63 46 78c13 7 28 11 43 11c21 0 42 -7 58 -22c19 -17 29 -43 29 -68c0 -15 -3 -29 -11 -42
c-16 -26 -44 -44 -75 -44h-3zM229 438h2c17 0 35 12 37 30v3c0 15 -8 32 -24 37c-3 1 -7 1 -10 1c-13 0 -26 -5 -32 -17c-4 -6 -5 -12 -5 -18c0 -18 13 -36 32 -36z" />
    <glyph glyph-name="asciicircum" unicode="^" horiz-adv-x="378" 
d="M249 457c-9 45 -18 89 -26 134c-32 -34 -63 -69 -94 -103c-14 11 -26 24 -38 37c44 48 88 97 133 144c4 3 9 4 13 4c13 0 27 -10 28 -24c5 -21 8 -42 13 -64c7 -40 15 -80 22 -120c-17 -4 -34 -6 -51 -10v2z" />
    <glyph glyph-name="ampersand" unicode="&#x26;" horiz-adv-x="505" 
d="M327 19c-10 23 -16 55 -38 55c-5 0 -12 -2 -20 -7c-21 -5 -43 -8 -66 -8c-41 0 -82 11 -109 45c-20 28 -32 63 -32 98c0 25 6 49 19 71c24 43 66 73 107 98c-5 19 -8 39 -8 59c0 52 19 104 59 138c20 20 49 32 76 32c21 0 41 -7 57 -21c22 -20 31 -48 31 -76
c0 -34 -13 -68 -35 -92c-34 -31 -80 -46 -121 -67c25 -69 54 -138 85 -204c25 6 56 32 78 32c2 0 4 0 6 -1c8 -12 15 -25 15 -35s-7 -18 -26 -21c-17 -11 -50 -14 -50 -30c0 -5 2 -11 9 -18c6 -7 9 -13 9 -18c0 -17 -31 -22 -46 -30zM204 111c19 4 73 -1 73 20
c0 3 -1 7 -4 11c-26 58 -51 116 -72 176c-42 -25 -85 -64 -85 -116v-8v-4c0 -37 25 -73 63 -77c9 -1 17 -2 25 -2zM244 399c31 18 69 27 92 56c8 14 14 32 14 50c0 12 -3 24 -12 34c-8 6 -16 8 -25 8c-24 0 -48 -20 -60 -40c-14 -22 -20 -47 -20 -72c0 -13 1 -26 4 -39z" />
    <glyph glyph-name="asterisk" unicode="*" 
d="M82 323l-7 24l145 41l-109 106l18 18l18 18l108 -107l40 147l24 -7l24 -6l-39 -146l141 40l7 -24l7 -24l-142 -40l105 -103l-18 -18l-18 -18l-105 104l-39 -143l-24 7l-24 7l38 140l-143 -40z" />
    <glyph glyph-name="parenleft" unicode="(" horiz-adv-x="387" 
d="M180 -6c-37 13 -62 47 -76 83c-17 43 -23 89 -23 134c0 23 2 46 4 68c9 86 28 173 77 245c46 54 97 94 161 100v-14c0 -13 0 -25 4 -36c-37 0 -85 -37 -106 -63c-30 -41 -51 -89 -65 -137c-14 -50 -22 -101 -22 -153c0 -23 2 -47 5 -71c11 -41 20 -95 62 -108
c-8 -15 -12 -31 -17 -47c-1 -1 -2 -2 -4 -1z" />
    <glyph glyph-name="parenright" unicode=")" horiz-adv-x="421" 
d="M61 37l10 51c3 0 6 -1 9 -1c25 0 48 15 66 32c47 42 79 98 103 156c23 56 42 117 42 178c0 12 -1 25 -3 38c-7 52 -25 95 -64 121l33 41c45 -30 71 -82 80 -135c3 -19 4 -39 4 -58c0 -52 -9 -104 -24 -154c-22 -73 -55 -145 -108 -201c-22 -23 -83 -71 -129 -71
c-7 0 -13 1 -19 3z" />
    <glyph glyph-name="grave" unicode="`" horiz-adv-x="303" 
d="M112 638l22 12l94 -158l-22 -13l-22 -13l-94 159z" />
    <glyph glyph-name="hyphen" unicode="-" horiz-adv-x="424" 
d="M96 364v23h234v-25v-25h-234v27z" />
    <glyph glyph-name="underscore" unicode="_" horiz-adv-x="646" 
d="M108 30v23h416v-25v-25h-416v27z" />
    <glyph glyph-name="plus" unicode="+" horiz-adv-x="417" 
d="M151 177c9 49 18 97 27 145h-108c3 17 6 35 9 52h108c9 47 17 94 26 141h52c-8 -47 -17 -93 -26 -140h104c-2 -18 -5 -35 -9 -53h-104l-27 -147h-52v2z" />
    <glyph glyph-name="equal" unicode="=" horiz-adv-x="529" 
d="M104 242v25h329v-25v-25h-329v25zM104 458v25h331v-25v-25h-331v25z" />
    <glyph glyph-name="bar" unicode="|" horiz-adv-x="332" 
d="M164 305l24 -7l-78 -282l-24 7l-24 7l78 281zM244 624l24 -7l-70 -253l-24 7l-24 7l70 252z" />
    <glyph glyph-name="backslash" unicode="\" horiz-adv-x="440" 
d="M316 16c-80 202 -160 405 -240 607c11 3 30 16 43 16c6 0 10 -3 12 -12c78 -198 156 -396 235 -594c-17 -5 -36 -16 -50 -17z" />
    <glyph glyph-name="bracketleft" unicode="[" horiz-adv-x="439" 
d="M240 96l-5 -19h-155c-12 0 -17 14 -15 23l139 518c3 12 16 13 25 13h148l-18 -43h-121l-127 -476h136z" />
    <glyph glyph-name="bracketright" unicode="]" horiz-adv-x="485" 
d="M66 96l2 16h136l163 476h-121l8 43h148c9 0 21 -1 17 -13l-176 -518c-3 -9 -17 -23 -29 -23h-155z" />
    <glyph glyph-name="braceleft" unicode="{" horiz-adv-x="375" 
d="M139 -11c-45 20 -69 69 -69 116v3v7c0 47 18 95 58 121c13 9 30 14 12 27c-16 18 -34 36 -48 57c-1 3 -1 6 -1 8c0 14 12 27 25 30c23 10 46 19 69 29c-18 21 -31 47 -31 75c0 5 0 10 1 15c9 60 50 120 112 133c8 1 20 4 29 4c10 0 17 -3 17 -12c0 -3 -1 -6 -2 -10
c0 -3 1 -5 1 -7c0 -17 -11 -26 -28 -26h-7c-44 -11 -68 -58 -71 -100v-3c0 -27 26 -44 42 -61c4 -6 6 -11 6 -15c0 -21 -33 -33 -50 -42c-12 -8 -32 -14 -32 -24c0 -4 2 -9 9 -14c13 -19 28 -37 38 -58c0 -2 1 -4 1 -6c0 -22 -27 -26 -45 -28c-39 -15 -53 -60 -53 -99v-11
c1 -27 16 -55 42 -64c-9 -14 -15 -36 -25 -45z" />
    <glyph glyph-name="braceright" unicode="}" horiz-adv-x="377" 
d="M69 20c-12 4 -5 21 -7 31c0 13 -3 28 16 21c45 6 72 52 78 94c1 4 1 8 1 12c0 24 -10 48 -30 63c-8 4 -12 12 -12 20c0 11 6 22 16 26c24 11 48 21 73 32c-16 24 -33 48 -48 73c-1 3 -1 6 -1 8c0 29 34 31 57 37c31 11 40 49 40 80v5v3c0 30 -17 59 -45 72c0 2 -1 3 -1 5
c0 15 15 30 18 45c50 -19 81 -71 81 -124v-7c-1 -37 -11 -75 -37 -102c-6 -10 -42 -15 -42 -30c0 -13 52 -49 52 -81c0 -19 -23 -27 -39 -32c-16 -7 -45 -11 -52 -22c15 -22 21 -48 21 -74c0 -25 -6 -51 -18 -74c-22 -43 -66 -81 -117 -81h-4z" />
    <glyph glyph-name="colon" unicode=":" horiz-adv-x="301" 
d="M115 195c-23 4 -38 27 -38 49c0 10 2 19 8 27c9 13 24 20 39 20c11 0 22 -3 31 -10c12 -8 18 -22 18 -37c0 -13 -5 -27 -15 -36c-11 -11 -28 -13 -43 -13zM129 439c4 38 24 46 48 47c4 0 7 -1 11 -2c22 -5 36 -26 36 -47v-6c-1 -21 -17 -39 -38 -42c-4 -1 -7 -1 -11 -1
c-30 0 -46 23 -46 51z" />
    <glyph glyph-name="semicolon" unicode=";" horiz-adv-x="350" 
d="M64 154c28 13 74 28 75 51c1 11 -6 10 -14 15c-12 6 -16 20 -16 33c0 3 1 7 1 10c2 16 18 29 34 32c5 1 11 2 17 2c21 0 44 -8 53 -24c4 -8 6 -17 6 -27c0 -26 -13 -54 -32 -69c-26 -20 -55 -25 -85 -25c-13 0 -26 1 -39 2zM215 384c-25 1 -44 22 -47 42c-1 4 -1 7 -1 11
c0 15 6 30 20 38c11 6 24 9 36 9c6 0 11 -1 16 -2c23 -6 33 -28 35 -47v-6c0 -16 -10 -32 -27 -39c-10 -4 -21 -6 -32 -6z" />
    <glyph glyph-name="less" unicode="&#x3c;" horiz-adv-x="539" 
d="M458 510l11 -22l-329 -164l212 -185l-16 -19l-16 -19l-241 210c-2 2 -4 4 -5 6c-3 4 -4 9 -4 13c0 9 5 18 14 22l363 180z" />
    <glyph glyph-name="greater" unicode="&#x3e;" horiz-adv-x="550" 
d="M201 534l18 18l248 -245c5 -5 7 -11 7 -17c0 -8 -3 -15 -9 -20c-2 -2 -5 -4 -8 -5l-378 -126l-8 24l-8 24l339 113l-219 216z" />
    <glyph glyph-name="slash" unicode="/" horiz-adv-x="405" 
d="M104 15l-43 32l236 594l46 -31z" />
    <glyph glyph-name="p" unicode="p" horiz-adv-x="576" 
d="M221 248c-54 -75 -121 -142 -202 -188c-6 -3 -13 -7 -19 -11v68c87 52 154 129 211 212c33 47 63 96 93 145h5c15 0 29 -7 42 -13c3 -10 1 -20 -3 -29c26 12 52 25 81 25h8c37 -4 69 -32 81 -67c9 -20 14 -42 14 -64c0 -24 -6 -47 -17 -68c-16 -33 -41 -64 -47 -101v-6
c0 -12 3 -27 15 -32c8 -3 16 -4 24 -4c12 0 24 2 35 3c11 2 23 4 34 6v-63c-22 -8 -45 -12 -69 -12c-23 0 -46 4 -67 14c-21 12 -39 31 -47 54c-2 6 -2 12 -2 18c0 20 8 40 16 58c17 36 46 65 63 100c4 10 6 20 6 30c0 14 -3 27 -7 40c-5 17 -17 34 -36 36h-8
c-32 0 -67 -13 -85 -39c-33 -48 -46 -80 -74 -156c-12 -32 -24 -66 -35 -99c-37 -106 -74 -198 -115 -302h-56z" />
    <glyph glyph-name="q" unicode="q" horiz-adv-x="659" 
d="M398 -195c-24 0 -48 16 -55 40c-3 6 -4 13 -4 19c0 9 2 17 6 24c20 56 39 111 59 166c-28 -23 -61 -37 -95 -46c-16 -4 -32 -7 -48 -7h-15c-27 7 -47 32 -59 56c-12 22 -19 47 -22 72c-23 -29 -107 -67 -159 -67h-6v47c26 0 120 50 125 54c40 29 59 81 88 122
c55 95 156 161 265 174c10 1 21 3 32 3c10 0 20 -2 29 -6c12 -5 21 -17 21 -29v-2c-1 -15 -5 -29 -8 -43c-13 -45 -26 -91 -39 -136c-17 -58 -34 -116 -49 -174c1 -13 14 -21 26 -21h4c23 0 47 9 70 17c15 6 95 41 95 41v-47c-35 -28 -68 -41 -106 -53
c-21 -6 -43 -11 -66 -12c5 -20 14 -40 14 -61c0 -4 0 -7 -1 -11c-6 -36 -19 -73 -45 -100c-14 -14 -33 -20 -53 -20h-4zM432 -118c8 17 14 36 17 55v3c0 17 -7 34 -12 50c-15 -43 -31 -85 -46 -127c2 -6 11 -6 16 -6c17 6 19 13 25 25zM354 81c33 20 57 52 71 88
c16 39 24 81 36 122c10 38 21 76 32 113c-78 -16 -152 -52 -208 -109c-22 -23 -37 -52 -49 -82c-11 -25 -21 -53 -21 -81c1 -20 23 -78 49 -78c31 3 63 12 90 27z" />
    <glyph glyph-name="r" unicode="r" horiz-adv-x="531" 
d="M292 42c-10 16 -15 35 -15 54c0 11 1 22 5 33c11 41 33 79 56 115c13 22 27 45 31 71c-2 12 -12 18 -18 28c-13 17 -26 35 -38 52c-36 -64 -63 -133 -106 -193c-36 -52 -84 -97 -143 -121c-21 -8 -42 -14 -64 -18v52c62 14 116 53 153 104c52 69 80 152 128 223
c6 10 14 23 28 24c11 1 22 -6 27 -15c25 -36 53 -70 77 -106c5 -10 8 -21 8 -32c0 -9 -2 -18 -5 -27c-12 -42 -38 -79 -60 -117c-12 -24 -23 -48 -27 -74c2 -18 14 -34 28 -44c8 -2 16 3 24 4c49 16 96 41 143 61c7 4 8 1 7 -6v-44c-52 -26 -105 -52 -163 -63
c-5 -1 -9 -1 -14 -1c-29 0 -47 17 -62 40z" />
    <glyph glyph-name="s" unicode="s" horiz-adv-x="561" 
d="M197 30c-6 7 -11 14 -16 22c-24 -16 -53 -28 -82 -28c-6 0 -11 0 -17 1c-28 4 -55 12 -74 34c-6 7 -7 15 -6 23v36c31 -9 60 -25 92 -25c23 4 43 15 64 25c76 40 138 101 199 162c40 39 79 79 117 120c10 10 21 20 33 29v-28c0 -111 -17 -223 -65 -325
c-1 -3 -3 -7 -4 -10c42 15 84 32 123 54v-54c-67 -37 -139 -74 -216 -79c-16 -1 -32 -1 -47 -1c-38 0 -77 15 -101 44zM366 62c43 43 62 104 73 162c4 24 7 50 10 74c-37 -44 -77 -85 -117 -125c-29 -28 -59 -56 -90 -80c-7 -5 -14 -10 -20 -15c13 -20 35 -35 59 -40
c6 -1 12 -2 20 -2c22 0 50 7 65 26z" />
    <glyph glyph-name="t" unicode="t" horiz-adv-x="501" 
d="M273 -13h-8c-15 0 -30 2 -43 11c-20 11 -31 32 -36 53c-3 13 -4 26 -4 39c0 7 0 14 1 20c5 32 15 63 23 94c-53 -62 -120 -112 -197 -140c-4 -1 -8 4 -7 8v42c65 23 119 66 162 119c24 28 44 58 64 89h-108v52h134c35 89 69 178 104 267c17 -4 33 -10 49 -18
c-32 -83 -65 -166 -97 -249h144v-52h-162c-20 -74 -42 -147 -58 -222c-1 -5 -1 -10 -1 -15c0 -11 2 -23 6 -33c5 -11 18 -14 29 -13c30 2 59 12 88 21c46 15 89 35 133 54c4 2 8 4 10 -1c4 -6 0 -14 1 -21v-25c-57 -34 -118 -64 -183 -77c-15 -2 -29 -3 -44 -3z" />
    <glyph glyph-name="u" unicode="u" horiz-adv-x="727" 
d="M552 5c-57 9 -86 28 -86 84v8c-13 -18 -30 -32 -49 -42c-39 -22 -83 -38 -129 -38h-4c-22 1 -46 10 -59 30c-16 30 -23 61 -23 92c0 12 1 25 3 37c2 17 6 34 11 51c-43 -52 -88 -102 -144 -141c-17 -11 -36 -21 -58 -21h-3c-4 1 -11 1 -9 7v41c51 34 96 74 141 115
c29 28 57 58 75 94c28 50 57 100 84 151c7 4 12 -4 18 -6c10 -5 20 -11 30 -16c-35 -93 -70 -185 -94 -281c-1 -11 -2 -23 -2 -35c0 -33 8 -65 42 -66c39 3 76 20 109 40c13 8 22 21 30 34c81 105 85 229 132 330c5 7 12 10 20 10c9 0 18 -5 23 -12c6 -8 5 -19 1 -28
c-31 -112 -64 -223 -89 -337c-1 -3 -1 -6 -1 -9c0 -20 16 -38 34 -38c60 0 124 36 172 61c0 -84 -112 -115 -172 -115h-3z" />
    <glyph glyph-name="v" unicode="v" horiz-adv-x="717" 
d="M213 69v27c0 10 0 19 1 28c5 40 27 75 44 111c12 24 19 51 24 76c-11 -25 -28 -48 -47 -70c-44 -52 -97 -98 -153 -137c-24 -16 -55 -31 -82 -41v51c51 21 94 58 135 95c35 34 69 70 94 112c19 37 31 78 53 114c8 14 23 24 37 24c10 0 19 -5 24 -17s6 -24 6 -37
c0 -10 -1 -21 -1 -31c-6 -53 -18 -107 -40 -156c-14 -33 -41 -62 -42 -98c0 -8 -1 -17 -1 -25c0 -19 3 -35 17 -35c5 0 10 1 16 4c29 18 54 41 79 63c33 31 64 64 94 98c-20 54 -39 109 -40 167c1 30 20 56 46 70c15 7 30 10 46 10c46 0 91 -27 107 -67c3 -7 4 -14 4 -21
c0 -11 -3 -22 -7 -32c-12 -26 -29 -49 -45 -72c-17 -22 -34 -44 -52 -65c16 -34 29 -73 58 -98c14 -12 31 -19 49 -19c4 0 8 0 12 1c24 2 46 12 68 20v-53c-26 -12 -55 -22 -84 -22c-10 0 -19 1 -29 4c-38 10 -67 40 -86 73c-10 16 -17 33 -25 50
c-47 -52 -93 -105 -152 -144c-19 -12 -40 -21 -63 -21c-33 1 -64 29 -65 63zM511 275c25 33 51 66 69 103c0 20 -31 40 -46 44c-34 0 -49 -16 -49 -44v-8c4 -33 14 -66 24 -98c1 1 2 2 2 3z" />
    <glyph glyph-name="w" unicode="w" horiz-adv-x="885" 
d="M430 159c-15 -28 -27 -72 -46 -98c-22 -32 -55 -58 -94 -67c-2 -1 -5 -1 -7 -1c-21 0 -44 17 -57 33c-29 43 -31 101 -31 148c0 27 9 54 16 80c-17 -33 -37 -65 -64 -92c-41 -41 -95 -74 -147 -99v50c49 30 99 63 134 109c44 79 80 170 128 237c6 15 18 21 30 21
c14 0 28 -10 28 -25v-4c-6 -25 -12 -49 -19 -73c-18 -66 -40 -132 -52 -199c-1 -9 -1 -18 -1 -26c0 -53 19 -84 44 -84c18 0 40 17 60 54c74 105 98 221 149 324c4 8 12 11 20 11c10 0 21 -5 25 -14c2 -4 3 -8 3 -12c0 -10 -5 -21 -8 -30c-17 -73 -43 -145 -55 -219
c-4 -22 -10 -46 -10 -69c0 -16 3 -31 13 -43c5 -6 11 -9 19 -9c39 0 102 81 102 103c-2 54 -19 107 -19 161c0 14 1 28 4 42c6 32 19 65 44 87c14 10 30 15 45 15c29 0 56 -18 69 -48c3 -7 5 -17 5 -27c0 -27 -10 -60 -17 -77c-22 -55 -66 -101 -66 -155
c2 -24 18 -60 39 -69c11 -3 23 -5 36 -5c46 0 97 19 135 29v-52c-51 -16 -99 -36 -147 -36c-14 0 -29 2 -43 6c-40 11 -53 70 -60 70c-35 -43 -101 -106 -150 -106c-25 0 -45 19 -53 67c-3 14 -4 32 -4 50c0 15 1 29 2 42zM706 401c-1 10 -16 17 -27 17c-5 0 -9 -1 -11 -4
c-12 -17 -19 -36 -24 -56c-6 -21 -9 -41 -9 -60c0 -21 3 -42 8 -63c10 26 22 52 33 77c14 31 26 60 30 89z" />
    <glyph glyph-name="x" unicode="x" horiz-adv-x="722" 
d="M550 1c-32 0 -59 22 -74 49c-27 43 -32 94 -48 142c-65 -57 -125 -118 -187 -178c-4 -8 -18 -11 -25 -3c-9 7 -14 18 -22 25c72 75 153 143 223 221c-8 39 -15 81 -42 112c-13 15 -33 22 -52 22c-5 0 -9 0 -13 -1c-38 -5 -70 -30 -92 -61c-53 -72 -78 -163 -138 -225
c-27 -20 -48 -33 -80 -42v51c42 26 79 63 99 108c20 40 38 82 65 119c24 36 56 69 97 86c20 9 44 15 67 15c14 0 28 -2 41 -7c32 -13 54 -43 68 -74c9 -20 15 -41 22 -63c36 26 65 60 100 89c15 12 27 27 41 40c6 5 14 10 22 10c4 0 8 -1 11 -4c9 -5 13 -15 17 -24
l-177 -181c1 -11 6 -23 7 -35c9 -42 15 -87 42 -123c5 -8 13 -14 23 -14c5 -1 9 -1 14 -1c19 0 37 4 55 10c38 14 72 37 108 56v-12v-22c0 -6 0 -13 -1 -19c-15 -22 -41 -31 -64 -41c-34 -13 -70 -23 -107 -25z" />
    <glyph glyph-name="y" unicode="y" horiz-adv-x="662" 
d="M402 -75c6 11 12 24 14 36c-25 -23 -55 -43 -69 -76c-2 -5 -3 -10 -3 -15c0 -6 1 -12 4 -17c18 0 46 59 54 72zM345 -203c-20 0 -36 18 -44 35c-7 13 -10 26 -10 40c0 16 5 32 12 46c18 38 51 66 84 91c13 14 34 15 49 25c9 30 17 63 26 91c-36 -48 -84 -91 -142 -109
c-17 -6 -35 -9 -53 -9c-14 0 -29 2 -42 8c-21 9 -37 30 -37 53v4c0 29 9 56 17 83c25 76 64 147 93 221c4 12 9 24 9 37v3c-22 -6 -39 -22 -55 -37c-38 -41 -54 -94 -73 -144c-12 -30 -28 -59 -51 -82c-36 -35 -86 -63 -128 -91v47c42 29 86 63 113 108c19 40 30 83 50 122
c24 48 58 93 106 118c13 6 27 12 42 12c6 0 11 -1 17 -3c18 -6 30 -24 31 -43v-10c0 -33 -13 -64 -25 -94c-29 -72 -68 -140 -90 -215c-3 -8 -5 -16 -5 -25c0 -4 1 -9 2 -13c7 -7 19 -5 28 -6h3c39 0 77 17 104 43c49 44 79 103 109 160c16 31 32 62 43 95
c13 35 23 71 35 106c5 8 13 12 22 12s19 -5 24 -14c2 -3 2 -7 2 -11c0 -7 -2 -14 -5 -21c-36 -123 -73 -247 -110 -371c49 9 134 22 166 50v-47c-43 -32 -96 -43 -148 -56c-12 -3 -23 -6 -35 -10c-7 -25 -11 -52 -21 -76c-14 -27 -28 -53 -47 -77c-19 -19 -40 -46 -66 -46z
" />
    <glyph glyph-name="z" unicode="z" horiz-adv-x="526" 
d="M187 -153c51 13 120 47 141 93c7 15 12 31 13 47c-51 -17 -108 -44 -136 -79c-9 -10 -25 -38 -25 -53c0 -5 2 -8 7 -8zM181 -202c-27 0 -50 23 -52 49c-1 4 -1 7 -1 11c0 23 11 46 22 66c24 38 64 63 104 81c23 11 45 21 68 31c1 4 2 8 2 12c0 28 -29 44 -55 44
c-42 -30 -91 -68 -136 -82c-11 0 -26 4 -28 16c0 2 -1 3 -1 5c0 13 10 23 20 29c33 25 70 45 103 70c49 34 92 75 125 124c10 26 34 78 34 114c0 13 -3 24 -10 31c-13 14 -33 15 -51 17h-6c-17 0 -34 -3 -48 -14c-92 -71 -136 -340 -265 -340h-6v47c65 22 90 74 114 159
c21 44 43 87 74 124c25 32 55 62 95 72c12 3 24 4 35 4c21 0 41 -4 61 -10c24 -9 47 -27 53 -53c2 -12 3 -24 3 -36c0 -59 -21 -123 -53 -163c-19 -27 -37 -58 -64 -78c38 -16 53 -43 55 -80c61 15 106 32 153 61v-47c-45 -30 -87 -49 -133 -62c2 -4 2 -9 2 -14
c0 -7 -1 -15 -2 -23c-23 -74 -85 -123 -147 -154c-17 -8 -35 -11 -53 -11h-7h-5z" />
    <glyph glyph-name="space" unicode=" " horiz-adv-x="463" 
 />
  </font>
</defs>
</svg>
